<svg id="logo" xmlns="http://www.w3.org/2000/svg" xmlns:xlink="http://www.w3.org/1999/xlink" viewBox="0 0 599 713.56"><defs><style>.cls-1{fill:#fff;}.cls-2{fill:#0071bc;}.cls-14,.cls-2{stroke:#c7b299;}.cls-14,.cls-2,.cls-3{stroke-miterlimit:10;stroke-width:5px;}.cls-3{fill:none;stroke:#fff;}.cls-4{fill:#c7b299;}.cls-5{fill:url(#Gradiente_sem_nome_17);}.cls-6{fill:url(#Gradiente_sem_nome_17-2);}.cls-7{fill:url(#Gradiente_sem_nome_17-3);}.cls-8{fill:url(#Gradiente_sem_nome_17-4);}.cls-9{fill:url(#Gradiente_sem_nome_17-5);}.cls-10{fill:#4c4931;}.cls-11{fill:url(#Gradiente_sem_nome_17-6);}.cls-12{fill:gray;}.cls-13{fill:#333;}.cls-14{fill:#998675;}</style><linearGradient id="Gradiente_sem_nome_17" x1="306.89" y1="278.55" x2="306.89" y2="547.55" gradientUnits="userSpaceOnUse"><stop offset="0" stop-color="#c2c0a8"/><stop offset="0.19" stop-color="#bebca4"/><stop offset="0.4" stop-color="#b0af99"/><stop offset="0.62" stop-color="#9b9986"/><stop offset="0.84" stop-color="#7c7b6c"/><stop offset="1" stop-color="#616054"/></linearGradient><linearGradient id="Gradiente_sem_nome_17-2" x1="477.37" y1="445.02" x2="477.74" y2="445.02" gradientTransform="translate(-111.66 620.48) rotate(-45)" xlink:href="#Gradiente_sem_nome_17"/><linearGradient id="Gradiente_sem_nome_17-3" x1="674.79" y1="444.76" x2="674.82" y2="444.76" gradientTransform="translate(517.59 -360.05) rotate(45)" xlink:href="#Gradiente_sem_nome_17"/><linearGradient id="Gradiente_sem_nome_17-4" x1="643.69" y1="493.81" x2="643.86" y2="493.81" xlink:href="#Gradiente_sem_nome_17"/><linearGradient id="Gradiente_sem_nome_17-5" x1="546.14" y1="395.87" x2="546.31" y2="395.87" xlink:href="#Gradiente_sem_nome_17"/><linearGradient id="Gradiente_sem_nome_17-6" x1="17.28" y1="275.05" x2="17.78" y2="275.05" xlink:href="#Gradiente_sem_nome_17"/></defs><circle class="cls-1" cx="297.89" cy="412.55" r="297"/><path class="cls-2" d="M687.61,149.5c-164,0-297,133-297,297s133,297,297,297,297-133,297-297S851.63,149.5,687.61,149.5Zm0,526.12C561.07,675.62,458.49,573,458.49,446.5S561.07,217.39,687.61,217.39,916.72,320,916.72,446.5,814.14,675.62,687.61,675.62Z" transform="translate(-388.11 -32.45)"/><path class="cls-1" d="M460.73,357.62a18.05,18.05,0,0,1-5.1,7.62,15.22,15.22,0,0,1-7.74,3.54,18.46,18.46,0,0,1-9.29-1.14,18,18,0,0,1-7.78-5.24,15.6,15.6,0,0,1-3.55-7.82,18.19,18.19,0,0,1,1.07-9.11,19.7,19.7,0,0,1,2.19-4.33,17.92,17.92,0,0,1,2.61-3.06l5.21,2.63a25.51,25.51,0,0,0-2.57,3,16.11,16.11,0,0,0-2,3.82,10.72,10.72,0,0,0-.64,6,9.29,9.29,0,0,0,2.59,4.72,14.12,14.12,0,0,0,5.14,3.16,14.27,14.27,0,0,0,6,1,9.11,9.11,0,0,0,5-1.86,10.56,10.56,0,0,0,3.38-4.89,16.77,16.77,0,0,0,1-4.22,27.41,27.41,0,0,0,0-4.06L462,348.7a22.07,22.07,0,0,1-.1,4.35A20.47,20.47,0,0,1,460.73,357.62Z" transform="translate(-388.11 -32.45)"/><path class="cls-1" d="M464.8,345.38l-29.53-15.3,2.76-5.32,25.6-2.73-19.07-9.88,2.8-5.4,29.54,15.3-2.3,4.43-27.25,3L467.6,340Z" transform="translate(-388.11 -32.45)"/><path class="cls-1" d="M480.43,316.65l-27.6-18.57,3.4-5.05,23.1,15.55L487,297.23l4.5,3Z" transform="translate(-388.11 -32.45)"/><path class="cls-1" d="M498.46,290.71l-20.93-26.26,3.44-3.61,16.58,4.55-5.42-16.3,3.44-3.62,27.29,19.58-4.36,4.58-20.31-14.91,1.39-1,6,19.31-19.58-5,.9-1.44,15.89,19.5Z" transform="translate(-388.11 -32.45)"/><path class="cls-1" d="M538,254a16.5,16.5,0,0,1-8,3.51,15.28,15.28,0,0,1-8.3-1.18A20.74,20.74,0,0,1,510.49,242a15.33,15.33,0,0,1,.88-8.34,17.69,17.69,0,0,1,13.35-10.4,15.2,15.2,0,0,1,8.3,1.18,20.64,20.64,0,0,1,11.2,14.37,15.24,15.24,0,0,1-.88,8.34A16.47,16.47,0,0,1,538,254Zm-3.62-4.64a9.91,9.91,0,0,0,3.48-4.58,9,9,0,0,0,.15-5.26,16,16,0,0,0-7.23-9.27,9,9,0,0,0-5.13-1.14,11.25,11.25,0,0,0-8.77,6.84,9,9,0,0,0-.15,5.25,16,16,0,0,0,7.23,9.28,9,9,0,0,0,5.13,1.13A9.89,9.89,0,0,0,534.37,249.35Z" transform="translate(-388.11 -32.45)"/><path class="cls-1" d="M554.26,241.25,537.4,212.57l10.49-6.16a15.37,15.37,0,0,1,5.74-2.12,8.62,8.62,0,0,1,5.14.84,10.35,10.35,0,0,1,4.1,4.15,9.77,9.77,0,0,1,1.6,5.8,11.05,11.05,0,0,1-1.8,5l13.55,8.23-5.86,3.45-11.79-7.4-.1.06-.11.06-5.12,3,6.27,10.65Zm-3.59-18.12,3.85-2.26c2.15-1.27,3.4-2.6,3.73-4a5.43,5.43,0,0,0-.7-4.09,5.27,5.27,0,0,0-3.23-2.64q-2-.48-5,1.33l-4.06,2.38Z" transform="translate(-388.11 -32.45)"/><path class="cls-1" d="M579.3,227,566,196.49l11.14-4.88a15.51,15.51,0,0,1,6-1.42,8.58,8.58,0,0,1,5,1.45,10.23,10.23,0,0,1,3.57,4.6,9.77,9.77,0,0,1,.91,5.95,11,11,0,0,1-2.39,4.77l12.49,9.78-6.23,2.73-10.83-8.75-.11.05-.11,0-5.44,2.38,5,11.32Zm-1.42-18.41,4.09-1.8q3.43-1.5,4.17-3.5a5.38,5.38,0,0,0-.21-4.15,5.21,5.21,0,0,0-2.89-3q-1.9-.71-5.16.72l-4.31,1.89Z" transform="translate(-388.11 -32.45)"/><path class="cls-1" d="M619.72,212.27a16.58,16.58,0,0,1-8.73.28,15.2,15.2,0,0,1-7.26-4.19,18.61,18.61,0,0,1-4.56-8.16,18.84,18.84,0,0,1-.5-9.35,15.36,15.36,0,0,1,3.92-7.41,17.72,17.72,0,0,1,16.26-4.69,15.26,15.26,0,0,1,7.26,4.18,20.71,20.71,0,0,1,5.06,17.51,15.39,15.39,0,0,1-3.92,7.42A16.61,16.61,0,0,1,619.72,212.27Zm-1.64-5.66a9.93,9.93,0,0,0,4.94-3,9.09,9.09,0,0,0,2.09-4.82,16.08,16.08,0,0,0-3.26-11.3,9.07,9.07,0,0,0-4.34-3,11.25,11.25,0,0,0-10.69,3.09,9.09,9.09,0,0,0-2.09,4.82,16.08,16.08,0,0,0,3.26,11.3,9,9,0,0,0,4.34,3A9.93,9.93,0,0,0,618.08,206.61Z" transform="translate(-388.11 -32.45)"/><path class="cls-1" d="M649.66,204.6l-3.26-33.1,12.39-1.22a17.58,17.58,0,0,1,8.61,1.15,14.31,14.31,0,0,1,6.35,5.1,20,20,0,0,1,1.76,17.81,14.44,14.44,0,0,1-5.24,6.24,17.62,17.62,0,0,1-8.22,2.8Zm5.52-6,6.34-.63a9.94,9.94,0,0,0,5.23-1.87,8.32,8.32,0,0,0,2.86-4.18A17,17,0,0,0,668.44,180a8.4,8.4,0,0,0-3.62-3.54,10,10,0,0,0-5.5-.82l-6.34.63Z" transform="translate(-388.11 -32.45)"/><path class="cls-1" d="M697.05,203a16.51,16.51,0,0,1-8.37-2.48,15.23,15.23,0,0,1-5.57-6.26,20.72,20.72,0,0,1,.72-18.21,15.21,15.21,0,0,1,6.06-5.8,17.73,17.73,0,0,1,16.9.67,15.22,15.22,0,0,1,5.58,6.27,20.65,20.65,0,0,1-.73,18.2,15.18,15.18,0,0,1-6,5.8A16.45,16.45,0,0,1,697.05,203Zm.24-5.88a9.89,9.89,0,0,0,5.61-1.25,9.1,9.1,0,0,0,3.51-3.92,16,16,0,0,0,.47-11.75,9,9,0,0,0-3.19-4.18,11.24,11.24,0,0,0-11.11-.44,9,9,0,0,0-3.51,3.91,16,16,0,0,0-.47,11.75,9,9,0,0,0,3.19,4.18A9.91,9.91,0,0,0,697.29,197.08Z" transform="translate(-388.11 -32.45)"/><path class="cls-1" d="M741.78,208.92a16.4,16.4,0,0,1-7.76-4,15.3,15.3,0,0,1-4.33-7.19A20.7,20.7,0,0,1,733.77,180a15.26,15.26,0,0,1,7-4.58,17.71,17.71,0,0,1,16.48,3.79,15.27,15.27,0,0,1,4.33,7.18,20.7,20.7,0,0,1-4.08,17.76,15.21,15.21,0,0,1-7,4.58A16.45,16.45,0,0,1,741.78,208.92Zm1.32-5.74a9.9,9.9,0,0,0,5.75-.19,9,9,0,0,0,4.17-3.2,16.08,16.08,0,0,0,2.63-11.46,9,9,0,0,0-2.36-4.7,11.24,11.24,0,0,0-10.84-2.49,9.06,9.06,0,0,0-4.17,3.2,16.08,16.08,0,0,0-2.63,11.46,9,9,0,0,0,2.36,4.7A9.85,9.85,0,0,0,743.1,203.18Zm2.07-4.55,4.56-3.09,8.83,13.34L754,212Z" transform="translate(-388.11 -32.45)"/><path class="cls-1" d="M774.2,218.81a14.72,14.72,0,0,1-6.56-4.5,11.29,11.29,0,0,1-2.38-6.49,19,19,0,0,1,1.42-7.88l6.81-17.74,5.67,2.18-6.24,16.28a28,28,0,0,0-1.27,4.16,9.62,9.62,0,0,0-.15,3.55,5.47,5.47,0,0,0,1.4,2.87,8.89,8.89,0,0,0,3.39,2.12,8.78,8.78,0,0,0,3.93.69,5.51,5.51,0,0,0,3-1.19,9.85,9.85,0,0,0,2.26-2.75,28.33,28.33,0,0,0,1.84-3.93l6.25-16.29,5.68,2.18-6.81,17.75a19.1,19.1,0,0,1-4.22,6.8,11.3,11.3,0,0,1-6.11,3.23A14.6,14.6,0,0,1,774.2,218.81Z" transform="translate(-388.11 -32.45)"/><path class="cls-1" d="M792.63,225.82l15.61-29.37,18.8,10-2.77,5.2L811,204.57l-3.32,6.25L818,216.31l-2.76,5.2L804.88,216l-4,7.51,13.73,7.29-2.77,5.2Z" transform="translate(-388.11 -32.45)"/><path class="cls-1" d="M815.54,238.32l18.82-27.43,10,6.88a15.39,15.39,0,0,1,4.35,4.31,8.68,8.68,0,0,1,1.42,5,10.34,10.34,0,0,1-2,5.47,9.62,9.62,0,0,1-4.57,3.91,11,11,0,0,1-5.3.5l-1.71,15.77-5.61-3.85,1.7-13.81-.1-.07-.1-.07-4.9-3.36-7,10.19Zm14.88-10.94,3.69,2.52c2.06,1.42,3.78,2,5.17,1.7a5.37,5.37,0,0,0,3.41-2.37,5.2,5.2,0,0,0,1-4c-.26-1.32-1.38-2.65-3.33-4l-3.88-2.66Z" transform="translate(-388.11 -32.45)"/><path class="cls-1" d="M849.41,264.87a16.52,16.52,0,0,1-4.86-7.25,15.27,15.27,0,0,1-.3-8.38,20.73,20.73,0,0,1,12.18-13.56,15.33,15.33,0,0,1,8.36-.6,17.72,17.72,0,0,1,12.59,11.3,15.27,15.27,0,0,1,.3,8.38,20.73,20.73,0,0,1-12.18,13.56,15.14,15.14,0,0,1-8.36.6A16.47,16.47,0,0,1,849.41,264.87Zm3.94-4.38a9.92,9.92,0,0,0,5.12,2.62,9.09,9.09,0,0,0,5.2-.78,16,16,0,0,0,7.85-8.75,9,9,0,0,0,.22-5.25,11.26,11.26,0,0,0-8.28-7.43,9,9,0,0,0-5.2.77,16,16,0,0,0-7.85,8.75,9,9,0,0,0-.22,5.26A9.91,9.91,0,0,0,853.35,260.49Z" transform="translate(-388.11 -32.45)"/><path class="cls-1" d="M870.62,286.43a24.11,24.11,0,0,1-2.43-3.4,37.21,37.21,0,0,1-1.88-3.63,21.75,21.75,0,0,1-1.08-2.9l5.36-3.69c.32,1.19.7,2.4,1.14,3.61a25.88,25.88,0,0,0,1.58,3.53,17,17,0,0,0,2.19,3.19,7.16,7.16,0,0,0,3.27,2.33,3.25,3.25,0,0,0,3.16-.79,3.47,3.47,0,0,0,1.28-2.2,7.39,7.39,0,0,0-.43-3q-.57-1.77-1.61-4.39a30.54,30.54,0,0,1-1.54-5,9.69,9.69,0,0,1,.07-4.49,8,8,0,0,1,2.67-3.95,8.65,8.65,0,0,1,9.8-1.33,16.25,16.25,0,0,1,5.32,4.27,24.39,24.39,0,0,1,3.28,4.83,36.41,36.41,0,0,1,2,4.52l-5.12,3.6a34.49,34.49,0,0,0-2-5.23,19.69,19.69,0,0,0-2.78-4.21,8,8,0,0,0-3.36-2.53,2.87,2.87,0,0,0-2.94.63,3.15,3.15,0,0,0-1.18,2.09,6.35,6.35,0,0,0,.41,2.69c.34,1,.8,2.21,1.38,3.55a32.88,32.88,0,0,1,2.08,6.23,10.19,10.19,0,0,1-.07,5,8.61,8.61,0,0,1-2.81,4.08,12.12,12.12,0,0,1-2.64,1.69,8,8,0,0,1-3.56.73,9.62,9.62,0,0,1-4.4-1.33A19.52,19.52,0,0,1,870.62,286.43Z" transform="translate(-388.11 -32.45)"/><path class="cls-1" d="M882,299.13l27.35-18.93,12.11,17.5-4.84,3.36-8.57-12.39-5.83,4,6.66,9.61L904,305.67l-6.65-9.62-7,4.84,8.85,12.78L894.39,317Z" transform="translate(-388.11 -32.45)"/><path class="cls-1" d="M896.69,320.67l29.43-15.51,2.79,5.3L916.53,333l19-10,2.84,5.38-29.43,15.51-2.33-4.42,13.09-24.08-20.18,10.63Z" transform="translate(-388.11 -32.45)"/><path class="cls-1" d="M911.37,349.79,942.46,338l7.58,19.9-5.51,2.09-5.36-14.07-6.62,2.52,4.16,10.92-5.5,2.1L927,350.48l-7.94,3L924.63,368l-5.51,2.1Z" transform="translate(-388.11 -32.45)"/><path class="cls-1" d="M491,634.23l17.15-12.59,1.69,1.76-3.68,11.24,11.32-3.3,1.72,1.77L506,649.75l-2.09-2.17,10.9-13.46.43.62-13.08,3.83,4.23-13,.61.46-13.87,10.38Z" transform="translate(-388.11 -32.45)"/><path class="cls-1" d="M515.71,658.86a9.55,9.55,0,0,1-3-4.06,7,7,0,0,1-.06-4.34,12.09,12.09,0,0,1,2.54-4.39l7.94-9.18,2.16,1.87-7.42,8.58a17.53,17.53,0,0,0-1.66,2.27,7.24,7.24,0,0,0-1,2.38,4.42,4.42,0,0,0,.23,2.45,7.61,7.61,0,0,0,4.59,4,4.44,4.44,0,0,0,2.46-.13,7.22,7.22,0,0,0,2.22-1.3,15.33,15.33,0,0,0,2-2l7.43-8.58,2.16,1.87-7.93,9.18a12.09,12.09,0,0,1-4,3.15,7.05,7.05,0,0,1-4.3.57A9.67,9.67,0,0,1,515.71,658.86Z" transform="translate(-388.11 -32.45)"/><path class="cls-1" d="M527,667.62l12.57-16.92,2.3,1.71-11,14.84L538.6,673l-1.54,2.08Z" transform="translate(-388.11 -32.45)"/><path class="cls-1" d="M539.72,676.81l11.78-17.48,2.37,1.6-11.78,17.48Z" transform="translate(-388.11 -32.45)"/><path class="cls-1" d="M546.63,681.44l10.91-18,11,6.66-1.34,2.21-8.55-5.17-3.2,5.28,6.8,4.11-1.34,2.22-6.8-4.12-3.69,6.11L559.2,686l-1.34,2.22Z" transform="translate(-388.11 -32.45)"/><path class="cls-1" d="M561.78,690.41l9.63-18.75,6.08,3.12a10,10,0,0,1,3.1,2.35,5.33,5.33,0,0,1,1.31,3,7.64,7.64,0,0,1-3.35,6.45,6.37,6.37,0,0,1-3.49.8l.22,9.93-3.1-1.6-.06-9.26-.06,0-.07,0-3.78-1.94-3.75,7.31Zm7.6-8.22,3.38,1.74a4.52,4.52,0,0,0,3.36.55,3.74,3.74,0,0,0,2.27-2,3.68,3.68,0,0,0,.33-3,4.65,4.65,0,0,0-2.43-2.38l-3.37-1.73Z" transform="translate(-388.11 -32.45)"/><path class="cls-1" d="M578.87,698.92l8.28-19.38L599,684.6,598,687l-9.19-3.93-2.43,5.67,7.31,3.13-1,2.38-7.31-3.12-2.8,6.56,9.44,4-1,2.38Z" transform="translate(-388.11 -32.45)"/><path class="cls-1" d="M600.67,708a17.69,17.69,0,0,1-2.41-1,20,20,0,0,1-2.13-1.28,11.49,11.49,0,0,1-1.53-1.22l1.37-2.75a20.38,20.38,0,0,0,1.58,1.42,18.94,18.94,0,0,0,2.13,1.48,13.16,13.16,0,0,0,2.46,1.16,6,6,0,0,0,3.3.36,2.56,2.56,0,0,0,1.89-1.81,3.07,3.07,0,0,0,.07-2,4.66,4.66,0,0,0-1.29-1.82,24,24,0,0,0-2.51-2,21.4,21.4,0,0,1-2.61-2.19,6.21,6.21,0,0,1-1.6-2.55,5.75,5.75,0,0,1,2-5.76,5.71,5.71,0,0,1,3.06-1.07,10.64,10.64,0,0,1,4.13.67,15.68,15.68,0,0,1,3.46,1.68,16.46,16.46,0,0,1,2.38,1.88l-1.28,2.78a13.81,13.81,0,0,0-2.62-2.46,11.81,11.81,0,0,0-2.9-1.47,6.07,6.07,0,0,0-3.12-.35,2.4,2.4,0,0,0-1.89,1.73,2.64,2.64,0,0,0-.05,1.81,4.14,4.14,0,0,0,1.14,1.61,25.2,25.2,0,0,0,2.21,1.78,20,20,0,0,1,3.07,2.67,6.63,6.63,0,0,1,1.6,2.77,5.35,5.35,0,0,1-.21,3.18,5.73,5.73,0,0,1-1.29,2.14,4.89,4.89,0,0,1-2.06,1.24,7.35,7.35,0,0,1-2.81.27A14.09,14.09,0,0,1,600.67,708Z" transform="translate(-388.11 -32.45)"/><path class="cls-1" d="M612.47,714.77l-1.64-.49,1.94-2.78-1-.3.9-3.06,3.12.91-.81,2.78Z" transform="translate(-388.11 -32.45)"/><path class="cls-1" d="M635.31,717.52a11,11,0,0,1-5.07-2.45,9.77,9.77,0,0,1-2.92-4.5,12.88,12.88,0,0,1,2.41-11.36,9.72,9.72,0,0,1,4.53-2.93,11.11,11.11,0,0,1,5.69-.18,12.92,12.92,0,0,1,2.93,1,11.76,11.76,0,0,1,2.32,1.39l-.84,2.53a16.53,16.53,0,0,0-2.24-1.41,10.69,10.69,0,0,0-2.74-1,7.37,7.37,0,0,0-4.31.24,7.12,7.12,0,0,0-3.12,2.43,10.91,10.91,0,0,0-1.75,8.28,7,7,0,0,0,1.85,3.47,7.33,7.33,0,0,0,3.83,2,11.4,11.4,0,0,0,2.9.27,12.93,12.93,0,0,0,2.66-.39l-.25,2.66a15.29,15.29,0,0,1-2.67.31A13.42,13.42,0,0,1,635.31,717.52Z" transform="translate(-388.11 -32.45)"/><path class="cls-1" d="M645.31,719l2.87-20.88,12.74,1.75-.36,2.56-9.9-1.36-.84,6.12,7.88,1.08-.36,2.57-7.87-1.08-1,7.06,10.17,1.4-.35,2.57Z" transform="translate(-388.11 -32.45)"/><path class="cls-1" d="M662.76,721.17l1.41-21,6.82.46a9.73,9.73,0,0,1,3.78.93,5.32,5.32,0,0,1,2.4,2.26,7.62,7.62,0,0,1-.52,7.25,6.35,6.35,0,0,1-2.88,2.11l4.13,9-3.48-.23-3.72-8.49h-.15l-4.23-.28-.55,8.2Zm3.73-10.55,3.78.25a4.59,4.59,0,0,0,3.31-.82,3.76,3.76,0,0,0,1.28-2.77,3.69,3.69,0,0,0-.9-2.91,4.62,4.62,0,0,0-3.17-1.22l-3.79-.26Z" transform="translate(-388.11 -32.45)"/><path class="cls-1" d="M687,722.22l-7.89-21,3,0,6.76,18.17-.84,0L694.26,701l3,0-7.22,21.19Z" transform="translate(-388.11 -32.45)"/><path class="cls-1" d="M700.61,721.86l-1.19-21,2.86-.16,1.18,21Z" transform="translate(-388.11 -32.45)"/><path class="cls-1" d="M715,721.16a19.16,19.16,0,0,1-2.63.09,20,20,0,0,1-2.46-.25,11,11,0,0,1-1.91-.45l.07-3.07q.84.3,2,.6a17.34,17.34,0,0,0,2.55.44,13,13,0,0,0,2.72,0,6.09,6.09,0,0,0,3.13-1.09,2.55,2.55,0,0,0,.95-2.44,3.1,3.1,0,0,0-.81-1.87,4.67,4.67,0,0,0-1.94-1.1,24,24,0,0,0-3.13-.76,21.45,21.45,0,0,1-3.3-.86,6.06,6.06,0,0,1-2.53-1.63,5.12,5.12,0,0,1-1.21-3,5.21,5.21,0,0,1,.54-3,5.77,5.77,0,0,1,2.32-2.27,10.49,10.49,0,0,1,4-1.15,15.32,15.32,0,0,1,3.84,0,17.46,17.46,0,0,1,3,.68l0,3.06a13.58,13.58,0,0,0-3.41-1.1,11.82,11.82,0,0,0-3.26-.09,6,6,0,0,0-3,1,2.38,2.38,0,0,0-1,2.37,2.63,2.63,0,0,0,.72,1.66,4.16,4.16,0,0,0,1.72,1,23.88,23.88,0,0,0,2.75.66,21,21,0,0,1,3.92,1.11,6.61,6.61,0,0,1,2.63,1.82,5.31,5.31,0,0,1,1.17,3,5.78,5.78,0,0,1-.25,2.48,5,5,0,0,1-1.33,2,7.36,7.36,0,0,1-2.43,1.45A14.29,14.29,0,0,1,715,721.16Z" transform="translate(-388.11 -32.45)"/><path class="cls-1" d="M727,719.18l-3.3-20.81,2.82-.45,3.3,20.82Z" transform="translate(-388.11 -32.45)"/><path class="cls-1" d="M737.81,698.65l.82-.18-2.51,19.23-3,.63,3-22.19,2.94-.63,11.79,19-2.95.63Zm7.45,11.28-8.83,1.88-.54-2.53,8.83-1.89Z" transform="translate(-388.11 -32.45)"/><path class="cls-1" d="M761.18,711.65l-6.41-20.08L767,687.66l.79,2.47-9.52,3,1.87,5.88,7.57-2.42.79,2.47L761,701.52l2.17,6.79,9.78-3.12.79,2.47Z" transform="translate(-388.11 -32.45)"/><path class="cls-1" d="M781.73,704.59,775,687.39l-5.72,2.25-1-2.41,14.09-5.55,1,2.41-5.71,2.25,6.77,17.2Z" transform="translate(-388.11 -32.45)"/><path class="cls-1" d="M800,696.77,790.48,678,802,672.16l1.16,2.31L794.2,679l2.78,5.52,6.88-3.48,1.16,2.32-6.88,3.47,4.38,8.68Z" transform="translate(-388.11 -32.45)"/><path class="cls-1" d="M822.35,685.12a9.55,9.55,0,0,1-4.78,1.55,7,7,0,0,1-4.14-1.28A12.17,12.17,0,0,1,810,681.6l-6.26-10.39,2.45-1.47,5.86,9.72a16.53,16.53,0,0,0,1.64,2.28,7.32,7.32,0,0,0,2,1.64,4.43,4.43,0,0,0,2.4.54,7.55,7.55,0,0,0,5.2-3.13,4.4,4.4,0,0,0,.64-2.38,7.65,7.65,0,0,0-.54-2.51,17.26,17.26,0,0,0-1.25-2.51l-5.86-9.72,2.45-1.47L825,672.59a12.11,12.11,0,0,1,1.76,4.76,6.94,6.94,0,0,1-.8,4.26A9.53,9.53,0,0,1,822.35,685.12Z" transform="translate(-388.11 -32.45)"/><path class="cls-1" d="M837.64,674.65l-10.72-15.06-5,3.56-1.5-2.11,12.34-8.78,1.5,2.11-5,3.56L840,673Z" transform="translate(-388.11 -32.45)"/><path class="cls-1" d="M847.93,667.12l-13.36-16.29,5.14-4.22a6.93,6.93,0,0,1,4.24-1.83,4.64,4.64,0,0,1,3.71,2,6.16,6.16,0,0,1,1.37,2.89,3.62,3.62,0,0,1-.68,2.81l0-.64a5.53,5.53,0,0,1,3.75-.8,5.6,5.6,0,0,1,3.33,2.16,5.67,5.67,0,0,1,1.41,4.53,7.08,7.08,0,0,1-2.79,4.39Zm-5.6-11.33,2.66-2.18a4.58,4.58,0,0,0,1.54-2.06,3.68,3.68,0,0,0-3.15-3.84,4.61,4.61,0,0,0-2.33,1.11L838.4,651Zm6.17,7.52,3.75-3.07a4.24,4.24,0,0,0,1.6-2.44,4.06,4.06,0,0,0-3.48-4.2,4.36,4.36,0,0,0-2.65,1.12L844,657.79Z" transform="translate(-388.11 -32.45)"/><path class="cls-1" d="M869.49,648.84a10.55,10.55,0,0,1-4.79,2.76,9.57,9.57,0,0,1-5.3-.17,13.23,13.23,0,0,1-8.07-8.34,9.55,9.55,0,0,1,0-5.3,10.59,10.59,0,0,1,2.91-4.7,10.74,10.74,0,0,1,4.79-2.76,9.67,9.67,0,0,1,5.3.17,13.23,13.23,0,0,1,8.07,8.34,9.59,9.59,0,0,1,0,5.31A10.56,10.56,0,0,1,869.49,648.84Zm-1.93-2a7.06,7.06,0,0,0,2.15-3.6,6.76,6.76,0,0,0-.29-3.82,10.94,10.94,0,0,0-5.77-6,6.78,6.78,0,0,0-3.81-.42,8,8,0,0,0-5.82,5.63,6.76,6.76,0,0,0,.29,3.82,10.94,10.94,0,0,0,5.77,6,6.78,6.78,0,0,0,3.81.42A7.1,7.1,0,0,0,867.56,646.85Z" transform="translate(-388.11 -32.45)"/><path class="cls-1" d="M879.7,637.85l-15.77-14,1.9-2.14L879.66,634l6.41-7.23,1.94,1.71Z" transform="translate(-388.11 -32.45)"/><path class="cls-3" d="M403.88,370.5" transform="translate(-388.11 -32.45)"/><path class="cls-4" d="M651.07,622.5v-14h8.72v2h-6.51v3.63h5.13v2h-5.13v4.25H660v2Z" transform="translate(-388.11 -32.45)"/><path class="cls-4" d="M666.3,622.78a11.54,11.54,0,0,1-1.74-.14,13.73,13.73,0,0,1-1.64-.37,9.31,9.31,0,0,1-1.23-.44l.28-2.32a12.22,12.22,0,0,0,1.38.58,10.81,10.81,0,0,0,1.61.47,7.68,7.68,0,0,0,1.72.19,3.6,3.6,0,0,0,1.93-.45,1.57,1.57,0,0,0,.72-1.42,1.77,1.77,0,0,0-.38-1.17,2.91,2.91,0,0,0-1.14-.79,18.48,18.48,0,0,0-1.95-.71,13.41,13.41,0,0,1-2.06-.84,4.12,4.12,0,0,1-1.5-1.25,3.41,3.41,0,0,1-.56-2,3.5,3.5,0,0,1,.58-2,3.7,3.7,0,0,1,1.69-1.37,6.86,6.86,0,0,1,2.77-.5,10,10,0,0,1,2.5.3,12.88,12.88,0,0,1,1.93.63l-.22,2.28a10.8,10.8,0,0,0-2.19-.9,8.47,8.47,0,0,0-2.13-.28,3.74,3.74,0,0,0-1.9.42A1.42,1.42,0,0,0,664,612a1.6,1.6,0,0,0,.35,1.07,2.73,2.73,0,0,0,1,.69,15.19,15.19,0,0,0,1.66.6,13.28,13.28,0,0,1,2.53,1,4.54,4.54,0,0,1,1.59,1.39,3.64,3.64,0,0,1,.54,2,4.14,4.14,0,0,1-.27,1.49,3.39,3.39,0,0,1-.91,1.28,4.63,4.63,0,0,1-1.67.89A9.1,9.1,0,0,1,666.3,622.78Z" transform="translate(-388.11 -32.45)"/><path class="cls-4" d="M676.68,622.5v-12h-4v-2h10.24v2h-4v12Z" transform="translate(-388.11 -32.45)"/><path class="cls-4" d="M683.35,622.5v-2.37h2.34v2.37Z" transform="translate(-388.11 -32.45)"/><path class="cls-4" d="M692.19,622.49l3.76-5.74c.45-.68.82-1.28,1.12-1.8a9.1,9.1,0,0,0,.67-1.4,3.58,3.58,0,0,0,.22-1.22,2.07,2.07,0,0,0-.55-1.52,2,2,0,0,0-1.49-.56,3.78,3.78,0,0,0-1.86.47,7.18,7.18,0,0,0-1.53,1.16l-.27-2.24a7,7,0,0,1,1.77-1,6,6,0,0,1,2.23-.4,4,4,0,0,1,2.13.52,3.3,3.3,0,0,1,1.29,1.38,4.16,4.16,0,0,1,.44,1.91,6,6,0,0,1-.24,1.69,9.31,9.31,0,0,1-.74,1.75c-.33.61-.76,1.32-1.29,2.12l-1.92,2.9h4.71v2Z" transform="translate(-388.11 -32.45)"/><path class="cls-4" d="M708.69,622.78a5.28,5.28,0,0,1-3.14-.94,6,6,0,0,1-2-2.6,9.67,9.67,0,0,1-.72-3.86,8.81,8.81,0,0,1,.75-3.75,5.94,5.94,0,0,1,2.07-2.51,5.75,5.75,0,0,1,6.18,0,5.9,5.9,0,0,1,2.06,2.51,9,9,0,0,1,.74,3.75,9.67,9.67,0,0,1-.72,3.86,5.92,5.92,0,0,1-2,2.6A5.27,5.27,0,0,1,708.69,622.78Zm0-2a3.2,3.2,0,0,0,1.94-.6,3.71,3.71,0,0,0,1.26-1.8,8.76,8.76,0,0,0,.45-3,6.34,6.34,0,0,0-1-3.92,3.32,3.32,0,0,0-5.25,0,6.16,6.16,0,0,0-1,3.92,8.74,8.74,0,0,0,.45,3,3.87,3.87,0,0,0,1.27,1.81A3.19,3.19,0,0,0,708.69,620.81Z" transform="translate(-388.11 -32.45)"/><path class="cls-4" d="M722.72,622.78a5.28,5.28,0,0,1-3.14-.94,6,6,0,0,1-2-2.6,9.67,9.67,0,0,1-.72-3.86,8.81,8.81,0,0,1,.75-3.75,5.94,5.94,0,0,1,2.07-2.51,5.75,5.75,0,0,1,6.18,0,5.9,5.9,0,0,1,2.06,2.51,9,9,0,0,1,.74,3.75,9.67,9.67,0,0,1-.72,3.86,5.92,5.92,0,0,1-2,2.6A5.27,5.27,0,0,1,722.72,622.78Zm0-2a3.2,3.2,0,0,0,1.94-.6,3.71,3.71,0,0,0,1.26-1.8,8.76,8.76,0,0,0,.45-3,6.34,6.34,0,0,0-1-3.92,3.32,3.32,0,0,0-5.25,0,6.16,6.16,0,0,0-1,3.92,8.74,8.74,0,0,0,.45,3,3.87,3.87,0,0,0,1.27,1.81A3.19,3.19,0,0,0,722.72,620.81Z" transform="translate(-388.11 -32.45)"/><path class="cls-4" d="M734.62,622.77a7.77,7.77,0,0,1-2.13-.29,6.85,6.85,0,0,1-1.75-.79l.52-2a10,10,0,0,0,1.52.71,4.93,4.93,0,0,0,1.76.29,2.94,2.94,0,0,0,2-.68,2.38,2.38,0,0,0,.76-1.86,2.42,2.42,0,0,0-.84-2,3.43,3.43,0,0,0-2.28-.7,9,9,0,0,0-1.39.1c-.44.06-.89.15-1.34.25l.87-7.32h6.6l-.11,2.09h-4.77l-.51,4.17-.65-.85a9.51,9.51,0,0,1,1-.17,9,9,0,0,1,1.06-.06,5.18,5.18,0,0,1,2.47.56,4,4,0,0,1,1.6,1.57,4.76,4.76,0,0,1,.56,2.34,4.57,4.57,0,0,1-.65,2.47,4.23,4.23,0,0,1-1.76,1.59A5.65,5.65,0,0,1,734.62,622.77Z" transform="translate(-388.11 -32.45)"/><rect class="cls-5" x="188.89" y="278.55" width="236" height="269"/><rect class="cls-6" x="685" y="320.89" width="16.3" height="248.27" rx="8.15" transform="translate(129.59 -392.23) rotate(45)"/><rect class="cls-7" x="685.26" y="441.91" width="16.3" height="5.71" transform="translate(-499.5 588.14) rotate(-45)"/><path class="cls-8" d="M769.82,532.7a8.15,8.15,0,0,0,11.53-11.53l-68.63-68.63L701.2,464.07Z" transform="translate(-388.11 -32.45)"/><path class="cls-9" d="M617.33,357.14a8.18,8.18,0,0,0-11.53,0h0a8.18,8.18,0,0,0,0,11.53L674.1,437l11.53-11.53Z" transform="translate(-388.11 -32.45)"/><rect class="cls-10" x="185.89" y="546.55" width="242" height="7" rx="3.5"/><rect class="cls-11" x="185.89" y="271.55" width="242" height="7" rx="3.5"/><rect class="cls-12" x="357.89" y="263.55" width="59" height="7"/><rect class="cls-13" x="353.89" y="257.55" width="67" height="6" rx="2"/><rect class="cls-12" x="356.89" y="258.55" width="1" height="4" rx="0.25"/><rect class="cls-12" x="357.89" y="258.55" width="1" height="4" rx="0.25"/><rect class="cls-12" x="358.89" y="258.55" width="1" height="4" rx="0.25"/><rect class="cls-12" x="359.89" y="258.55" width="1" height="4" rx="0.25"/><rect class="cls-12" x="360.89" y="258.55" width="1" height="4" rx="0.25"/><rect class="cls-12" x="361.89" y="258.55" width="1" height="4" rx="0.25"/><rect class="cls-12" x="362.89" y="258.55" width="1" height="4" rx="0.25"/><rect class="cls-12" x="363.89" y="258.55" width="1" height="4" rx="0.25"/><rect class="cls-12" x="364.89" y="258.55" width="1" height="4" rx="0.25"/><rect class="cls-12" x="365.89" y="258.55" width="1" height="4" rx="0.25"/><rect class="cls-12" x="366.89" y="258.55" width="1" height="4" rx="0.25"/><rect class="cls-12" x="367.89" y="258.55" width="1" height="4" rx="0.25"/><rect class="cls-12" x="368.89" y="258.55" width="1" height="4" rx="0.25"/><rect class="cls-12" x="369.89" y="258.55" width="1" height="4" rx="0.25"/><rect class="cls-12" x="370.89" y="258.55" width="1" height="4" rx="0.25"/><rect class="cls-12" x="371.89" y="258.55" width="1" height="4" rx="0.25"/><rect class="cls-12" x="372.89" y="258.55" width="1" height="4" rx="0.25"/><rect class="cls-12" x="373.89" y="258.55" width="1" height="4" rx="0.25"/><rect class="cls-12" x="374.89" y="258.55" width="1" height="4" rx="0.25"/><rect class="cls-12" x="375.89" y="258.55" width="1" height="4" rx="0.25"/><rect class="cls-12" x="376.89" y="258.55" width="1" height="4" rx="0.25"/><rect class="cls-12" x="377.89" y="258.55" width="1" height="4" rx="0.25"/><rect class="cls-12" x="378.89" y="258.55" width="1" height="4" rx="0.25"/><rect class="cls-12" x="379.89" y="258.55" width="1" height="4" rx="0.25"/><rect class="cls-12" x="380.89" y="258.55" width="1" height="4" rx="0.25"/><rect class="cls-12" x="381.89" y="258.55" width="1" height="4" rx="0.25"/><rect class="cls-12" x="382.89" y="258.55" width="1" height="4" rx="0.25"/><rect class="cls-12" x="383.89" y="258.55" width="1" height="4" rx="0.25"/><rect class="cls-12" x="384.89" y="258.55" width="1" height="4" rx="0.25"/><rect class="cls-12" x="385.89" y="258.55" width="1" height="4" rx="0.25"/><rect class="cls-12" x="386.89" y="258.55" width="1" height="4" rx="0.25"/><rect class="cls-12" x="387.89" y="258.55" width="1" height="4" rx="0.25"/><rect class="cls-12" x="388.89" y="258.55" width="1" height="4" rx="0.25"/><rect class="cls-12" x="389.89" y="258.55" width="1" height="4" rx="0.25"/><rect class="cls-12" x="390.89" y="258.55" width="1" height="4" rx="0.25"/><rect class="cls-12" x="391.89" y="258.55" width="1" height="4" rx="0.25"/><rect class="cls-12" x="392.89" y="258.55" width="1" height="4" rx="0.25"/><rect class="cls-12" x="393.89" y="258.55" width="1" height="4" rx="0.25"/><rect class="cls-12" x="394.89" y="258.55" width="1" height="4" rx="0.25"/><rect class="cls-12" x="395.89" y="258.55" width="1" height="4" rx="0.25"/><rect class="cls-12" x="396.89" y="258.55" width="1" height="4" rx="0.25"/><rect class="cls-12" x="397.89" y="258.55" width="1" height="4" rx="0.25"/><rect class="cls-12" x="398.89" y="258.55" width="1" height="4" rx="0.25"/><rect class="cls-12" x="399.89" y="258.55" width="1" height="4" rx="0.25"/><rect class="cls-12" x="400.89" y="258.55" width="1" height="4" rx="0.25"/><rect class="cls-12" x="401.89" y="258.55" width="1" height="4" rx="0.25"/><rect class="cls-12" x="402.89" y="258.55" width="1" height="4" rx="0.25"/><rect class="cls-12" x="403.89" y="258.55" width="1" height="4" rx="0.25"/><rect class="cls-12" x="404.89" y="258.55" width="1" height="4" rx="0.25"/><rect class="cls-12" x="405.89" y="258.55" width="1" height="4" rx="0.25"/><rect class="cls-12" x="406.89" y="258.55" width="1" height="4" rx="0.25"/><rect class="cls-12" x="407.89" y="258.55" width="1" height="4" rx="0.25"/><rect class="cls-12" x="408.89" y="258.55" width="1" height="4" rx="0.25"/><rect class="cls-12" x="409.89" y="258.55" width="1" height="4" rx="0.25"/><rect class="cls-12" x="410.89" y="258.55" width="1" height="4" rx="0.25"/><rect class="cls-12" x="411.89" y="258.55" width="1" height="4" rx="0.25"/><rect class="cls-12" x="412.89" y="258.55" width="1" height="4" rx="0.25"/><rect class="cls-12" x="413.89" y="258.55" width="1" height="4" rx="0.25"/><rect class="cls-12" x="414.89" y="258.55" width="1" height="4" rx="0.25"/><rect class="cls-12" x="415.89" y="258.55" width="1" height="4" rx="0.25"/><rect class="cls-12" x="416.89" y="258.55" width="1" height="4" rx="0.25"/><rect class="cls-12" x="417.89" y="258.55" width="1" height="4" rx="0.25"/><rect class="cls-12" x="418.89" y="258.55" width="1" height="4" rx="0.25"/><polygon class="cls-14" points="306.58 5.65 321.37 35.62 354.45 40.42 330.51 63.75 336.17 96.69 306.58 81.14 277 96.69 282.65 63.75 258.72 40.42 291.79 35.62 306.58 5.65"/><circle class="cls-1" cx="36.89" cy="414.55" r="16"/><circle class="cls-1" cx="562.89" cy="414.55" r="16"/></svg>